<svg xmlns="http://www.w3.org/2000/svg" xmlns:svg="http://www.w3.org/2000/svg" xmlns:xlink="http://www.w3.org/1999/xlink" version="1.0" height="1145.3261961042879pt" width="1100.000000000007pt" viewBox="299.99816894531256 156.99999999999994 1108.000000000007 1151.3261961042879" ><defs><style type="text/css">
            @font-face {
                font-family: 'lt_regular';
                src: url('https://app.creately.com/diagram/assets/fonts/lato/lt-regular-webfont.woff2') format('woff2'),
                    url('https://app.creately.com/diagram/assets/fonts/lato/lt-regular-webfont.woff') format('woff');
                font-weight: normal;
                font-style: normal;
            }
            @font-face {
                font-family: 'noto_regular';
                src: url('https://app.creately.com/diagram/assets/fonts/noto/noto-regular.woff') format('woff'),
                     url('https://app.creately.com/diagram/assets/fonts/noto/noto-regular.woff2') format('woff2');
                font-weight: normal;
                font-style: normal;
            }
        p {
            margin: 0;
        }
        </style></defs><defs><style>
            span{ display: inline-block; }
        </style></defs><g id="w4oAtHKT0iB"><g transform="translate(304.99816894531256 285.3261961042881)"><rect x="0" y="0" width="1100.000000000007" height="1019.9999999999998" fill="rgb(255,255,255)" stroke="#E9E4E8" stroke-width="2" stroke-linecap="round" stroke-linejoin="round" stroke-dasharray="0 0"/></g><g transform="translate(854.9981689453161, 786.326196104288) rotate(0, 0, 9)" width="0" height="18"><text text-decoration="none" x="0" fill="#4b4b4b" font-size="10pt" font-family="noto_regular"  y="17"></text></g></g><g id="xylRTBVZB4c"><g transform="translate(394.9981689453123 665.3261961042881)"><rect x="0" y="0" width="200.14773106575012" height="100" rx="5" ry="5" fill="rgb(36,175,175)" stroke="#24AFAF" stroke-width="2" stroke-linecap="round" stroke-linejoin="round"/><path d="M 0 28 a 0,0 0 0 1 0,0 h 200.14773106575012 a 0,0 0 0 1 0,0 v 67 a 5,5 0 0 1 -5,5 h -190.14773106575012 a 5,5 0 0 1 -5,-5 z" fill="rgb(255,255,255)" stroke="#24AFAF" stroke-width="2" stroke-linecap="round" stroke-linejoin="round" /></g><g transform="translate(456.06203447818734, 670.3261961042881) rotate(0, 39.01, 0)" width="78.02" height="18"><text text-decoration="none" x="0.509999999999998" fill="#ffffff" font-size="10pt" font-family="lt_regular"  y="17">Login&#160;</text><text text-decoration="none" x="34.51" fill="#ffffff" font-size="10pt" font-family="lt_regular"  y="17">System</text><text text-decoration="none" x="77.50999999999999" fill="#4b4b4b" font-size="10pt" font-family="noto_regular"  y="17"></text></g><g transform="translate(399.9981689453123, 698.508014112711) rotate(0, 0, 0)" width="134.71" height="54.01"><text text-decoration="none" x="0" fill="#455569" font-size="10pt" font-family="lt_regular"  y="14">Initializes&#160;</text><text text-decoration="none" x="56" fill="#455569" font-size="10pt" font-family="lt_regular"  y="14">User&#160;</text><text text-decoration="none" x="87" fill="#455569" font-size="10pt" font-family="lt_regular"  y="14">Panel</text><text text-decoration="none" x="118" fill="#455569" font-size="10pt" font-family="lt_regular"  y="14"></text><text text-decoration="none" x="0" fill="#455569" font-size="10pt" font-family="lt_regular"  y="33">Initializes&#160;</text><text text-decoration="none" x="56" fill="#455569" font-size="10pt" font-family="lt_regular"  y="33">Admin&#160;</text><text text-decoration="none" x="96" fill="#455569" font-size="10pt" font-family="lt_regular"  y="33">Panel&#160;</text><text text-decoration="none" x="130" fill="#455569" font-size="10pt" font-family="lt_regular"  y="33"></text><text text-decoration="none" x="0" fill="#455569" font-size="10pt" font-family="lt_regular"  y="55">Register&#160;</text><text text-decoration="none" x="51" fill="#455569" font-size="10pt" font-family="lt_regular"  y="55">User</text><text text-decoration="none" x="79" fill="#4b4b4b" font-size="10pt" font-family="noto_regular"  y="55"></text></g><g transform="translate(590.1359000110624, 698.508014112711) rotate(0, 0.01, 0)" width="0.01" height="54.01"><text text-decoration="none" x="0.01" fill="#4b4b4b" font-size="10pt" font-family="lt_regular"  y="14"></text><text text-decoration="none" x="0.01" fill="#4b4b4b" font-size="10pt" font-family="lt_regular"  y="33"></text><text text-decoration="none" x="0.005" fill="#4b4b4b" font-size="10pt" font-family="noto_regular"  y="55"></text></g></g><g id="9jaxdisi0GF"><g transform="translate(660.0000000000002 320)"><rect x="0" y="0" width="430" height="70" fill="rgba(255,255,255,0.01)" stroke="rgba(255,255,255,0.01)"/></g><g transform="translate(670.0000000000002, 330) rotate(0, 0, 0)" width="401.75" height="44.01"><text text-decoration="none" x="0" fill="#4b4b4b" font-size="24pt" font-family="lt_regular"  y="35">Library&#160;</text><text text-decoration="none" x="106" fill="#4b4b4b" font-size="24pt" font-family="lt_regular"  y="35">Management&#160;</text><text text-decoration="none" x="300" fill="#4b4b4b" font-size="24pt" font-family="lt_regular"  y="35">System</text><text text-decoration="none" x="401" fill="#4b4b4b" font-size="10pt" font-family="noto_regular"  y="35"></text></g></g><g id="4T9fIQsCrMg"><g transform="translate(674.9981689453123 545.3261961042881)"><rect x="0" y="0" width="219.9999999999997" height="100" rx="5" ry="5" fill="rgb(254,190,50)" stroke="#febe32" stroke-width="2" stroke-linecap="round" stroke-linejoin="round" stroke-dasharray="0 0"/><path d="M 0 28 a 0,0 0 0 1 0,0 h 219.9999999999997 a 0,0 0 0 1 0,0 v 67 a 5,5 0 0 1 -5,5 h -209.9999999999997 a 5,5 0 0 1 -5,-5 z" fill="rgb(255,255,255)" stroke="#febe32" stroke-width="2" stroke-linecap="round" stroke-linejoin="round" stroke-dasharray="0 0" /></g><g transform="translate(753.433168945312, 550.3261961042881) rotate(0, 31.565, 0)" width="63.13" height="18"><text text-decoration="none" x="0.5650000000000013" fill="#ffffff" font-size="10pt" font-family="lt_regular"  y="17">User&#160;</text><text text-decoration="none" x="31.565" fill="#ffffff" font-size="10pt" font-family="lt_regular"  y="17">Panel</text><text text-decoration="none" x="62.565" fill="#4b4b4b" font-size="10pt" font-family="noto_regular"  y="17"></text></g><g transform="translate(679.9981689453123, 578.508014112711) rotate(0, 0, 0)" width="153.66" height="54.01"><text text-decoration="none" x="0" fill="#455569" font-size="10pt" font-family="lt_regular"  y="14">Initializes&#160;</text><text text-decoration="none" x="56" fill="#455569" font-size="10pt" font-family="lt_regular"  y="14">checkout/return</text><text text-decoration="none" x="150" fill="#455569" font-size="10pt" font-family="lt_regular"  y="14"></text><text text-decoration="none" x="0" fill="#455569" font-size="10pt" font-family="lt_regular"  y="33">Initializes&#160;</text><text text-decoration="none" x="56" fill="#455569" font-size="10pt" font-family="lt_regular"  y="33">book&#160;</text><text text-decoration="none" x="87" fill="#455569" font-size="10pt" font-family="lt_regular"  y="33">search</text><text text-decoration="none" x="124" fill="#455569" font-size="10pt" font-family="lt_regular"  y="33"></text><text text-decoration="none" x="0" fill="#455569" font-size="10pt" font-family="lt_regular"  y="55">Log&#160;</text><text text-decoration="none" x="24" fill="#455569" font-size="10pt" font-family="lt_regular"  y="55">out</text><text text-decoration="none" x="43" fill="#4b4b4b" font-size="10pt" font-family="noto_regular"  y="55"></text></g><g transform="translate(889.9881689453119, 578.508014112711) rotate(0, 0.01, 0)" width="0.01" height="18.1"><text text-decoration="none" x="0.005" fill="#4b4b4b" font-size="10pt" font-family="noto_regular"  y="17"></text></g></g><g id="Y23bYpw01VL"><g transform="translate(664.9981689453125 805.3261961042881)"><rect x="0" y="0" width="240.00000000002808" height="129.0909080505371" rx="5" ry="5" fill="rgb(254,190,50)" stroke="#febe32" stroke-width="2" stroke-linecap="round" stroke-linejoin="round" stroke-dasharray="0 0"/><path d="M 0 28 a 0,0 0 0 1 0,0 h 240.00000000002808 a 0,0 0 0 1 0,0 v 96.09090805053711 a 5,5 0 0 1 -5,5 h -230.00000000002808 a 5,5 0 0 1 -5,-5 z" fill="rgb(255,255,255)" stroke="#febe32" stroke-width="2" stroke-linecap="round" stroke-linejoin="round" stroke-dasharray="0 0" /></g><g transform="translate(748.1281689453266, 810.3261961042881) rotate(0, 36.87, 0)" width="73.74" height="18"><text text-decoration="none" x="1.3699999999999974" fill="#ffffff" font-size="10pt" font-family="lt_regular"  y="17">Admin&#160;</text><text text-decoration="none" x="41.37" fill="#ffffff" font-size="10pt" font-family="lt_regular"  y="17">Panel</text><text text-decoration="none" x="72.37" fill="#4b4b4b" font-size="10pt" font-family="noto_regular"  y="17"></text></g><g transform="translate(669.9981689453125, 838.508014112711) rotate(0, 0, 0)" width="171.9" height="90"><text text-decoration="none" x="0" fill="#455569" font-size="10pt" font-family="lt_regular"  y="14">Initializes&#160;</text><text text-decoration="none" x="56" fill="#455569" font-size="10pt" font-family="lt_regular"  y="14">add/remove&#160;</text><text text-decoration="none" x="129" fill="#455569" font-size="10pt" font-family="lt_regular"  y="14">genres</text><text text-decoration="none" x="168" fill="#455569" font-size="10pt" font-family="lt_regular"  y="14"></text><text text-decoration="none" x="0" fill="#455569" font-size="10pt" font-family="lt_regular"  y="33">Initializes&#160;</text><text text-decoration="none" x="56" fill="#455569" font-size="10pt" font-family="lt_regular"  y="33">add/remove&#160;</text><text text-decoration="none" x="129" fill="#455569" font-size="10pt" font-family="lt_regular"  y="33">books</text><text text-decoration="none" x="163" fill="#455569" font-size="10pt" font-family="lt_regular"  y="33"></text><text text-decoration="none" x="0" fill="#455569" font-size="10pt" font-family="lt_regular"  y="52">Initializes&#160;</text><text text-decoration="none" x="56" fill="#455569" font-size="10pt" font-family="lt_regular"  y="52">manage&#160;</text><text text-decoration="none" x="103" fill="#455569" font-size="10pt" font-family="lt_regular"  y="52">users</text><text text-decoration="none" x="134" fill="#455569" font-size="10pt" font-family="lt_regular"  y="52"></text><text text-decoration="none" x="0" fill="#455569" font-size="10pt" font-family="lt_regular"  y="71">Initializes&#160;</text><text text-decoration="none" x="56" fill="#455569" font-size="10pt" font-family="lt_regular"  y="71">fees</text><text text-decoration="none" x="81" fill="#455569" font-size="10pt" font-family="lt_regular"  y="71"></text><text text-decoration="none" x="0" fill="#455569" font-size="10pt" font-family="lt_regular"  y="93">Log&#160;</text><text text-decoration="none" x="24" fill="#455569" font-size="10pt" font-family="lt_regular"  y="93">Out</text><text text-decoration="none" x="46" fill="#4b4b4b" font-size="10pt" font-family="noto_regular"  y="93"></text></g><g transform="translate(899.9881689453406, 838.508014112711) rotate(0, 0.01, 0)" width="0.01" height="18.1"><text text-decoration="none" x="0.005" fill="#4b4b4b" font-size="10pt" font-family="noto_regular"  y="17"></text></g></g><g id="rc8GVszBQ74"><g transform="translate(1094.9981689453125 405.3261961042881)"><rect x="0" y="0" width="159.9999999999996" height="103.27189239955412" rx="10" ry="10" fill="rgb(255,255,255)" stroke="#24afaf" stroke-width="2" stroke-linecap="round" stroke-linejoin="round"/><path d="M 0 30 a 0,0 0 0 1 0,0 h 159.9999999999996 a 0,0 0 0 1 0,0 v 63.27189239955412 a 10,10 0 0 1 -10,10 h -139.9999999999996 a 10,10 0 0 1 -10,-10 z" fill="rgb(255,255,255)" stroke="#24afaf" stroke-width="2" stroke-linecap="round" stroke-linejoin="round" /></g><g transform="translate(1126.8181689453122, 411.3261961042881) rotate(0, 48.18, 9)" width="96.36" height="18"><text text-decoration="none" x="0.6799999999999997" fill="#4b4b4b" font-size="10pt" font-family="lt_regular"  y="17">checkoutSystem</text><text text-decoration="none" x="95.68" fill="#4b4b4b" font-size="10pt" font-family="noto_regular"  y="17"></text></g><g transform="translate(1104.9981689453125, 440.3261961042881) rotate(0, 0, 0)" width="119.85" height="36.01"><text text-decoration="none" x="0" fill="#4b4b4b" font-size="10pt" font-family="lt_regular"  y="14">checkoutBook()&#160;</text><text text-decoration="none" x="90" fill="#4b4b4b" font-size="10pt" font-family="lt_regular"  y="14">void</text><text text-decoration="none" x="114" fill="#4b4b4b" font-size="10pt" font-family="lt_regular"  y="14"></text><text text-decoration="none" x="0" fill="#4b4b4b" font-size="10pt" font-family="lt_regular"  y="36">returnBook()&#160;</text><text text-decoration="none" x="74" fill="#4b4b4b" font-size="10pt" font-family="lt_regular"  y="36">void</text><text text-decoration="none" x="98" fill="#4b4b4b" font-size="10pt" font-family="noto_regular"  y="36"></text></g></g><g id="zp7alfIYtgQ"><g transform="translate(1094.9981689453125 525.3261961042881)"><rect x="0" y="0" width="159.99999999999997" height="103.27189239955412" rx="10" ry="10" fill="rgb(255,255,255)" stroke="#24afaf" stroke-width="2" stroke-linecap="round" stroke-linejoin="round"/><path d="M 0 30 a 0,0 0 0 1 0,0 h 159.99999999999997 a 0,0 0 0 1 0,0 v 63.27189239955412 a 10,10 0 0 1 -10,10 h -139.99999999999997 a 10,10 0 0 1 -10,-10 z" fill="rgb(255,255,255)" stroke="#24afaf" stroke-width="2" stroke-linecap="round" stroke-linejoin="round" /></g><g transform="translate(1137.8231689453125, 531.3261961042881) rotate(0, 37.175, 9)" width="74.35" height="18"><text text-decoration="none" x="1.1749999999999972" fill="#4b4b4b" font-size="10pt" font-family="lt_regular"  y="17">searchBooks</text><text text-decoration="none" x="73.175" fill="#4b4b4b" font-size="10pt" font-family="noto_regular"  y="17"></text></g><g transform="translate(1104.9981689453125, 560.3261961042881) rotate(0, 0, 0)" width="73.69" height="18"><text text-decoration="none" x="0" fill="#4b4b4b" font-size="10pt" font-family="lt_regular"  y="17">search()&#160;</text><text text-decoration="none" x="46" fill="#4b4b4b" font-size="10pt" font-family="lt_regular"  y="17">void</text><text text-decoration="none" x="70" fill="#4b4b4b" font-size="10pt" font-family="noto_regular"  y="17"></text></g></g><g id="BbhCVPX2M0l"><g><path d="M 594.9981689453123,715.3261961042881 L 784.998168945312,715.3261961042881 L 784.9981689453123,645.3261961042881" fill="none" stroke="#7E7E7E" stroke-width="2" stroke-linecap="round" stroke-linejoin="round"/></g></g><g id="CufhAcuivne"><g><path d="M 594.9981689453123,715.3261961042881 L 784.9981689453266,715.3261961042881 L 784.9981689453123,805.3261961042881" fill="none" stroke="#7E7E7E" stroke-width="2" stroke-linecap="round" stroke-linejoin="round"/></g></g><g id="YdZJ9nF4BSO"><g transform="translate(1094.9981689453118 655.3261961042881)"><rect x="0" y="0" width="170.00000000000003" height="88.51876491390355" rx="5" ry="5" fill="rgb(254,190,50)" stroke="#febe32" stroke-width="2" stroke-linecap="round" stroke-linejoin="round" stroke-dasharray="0 0"/><path d="M 0 28 a 0,0 0 0 1 0,0 h 170.00000000000003 a 0,0 0 0 1 0,0 v 55.51876491390355 a 5,5 0 0 1 -5,5 h -160.00000000000003 a 5,5 0 0 1 -5,-5 z" fill="rgb(255,255,255)" stroke="#febe32" stroke-width="2" stroke-linecap="round" stroke-linejoin="round" stroke-dasharray="0 0" /></g><g transform="translate(1159.4481689453119, 660.3261961042881) rotate(0, 20.55, 0)" width="41.1" height="18"><text text-decoration="none" x="0.5500000000000007" fill="#ffffff" font-size="10pt" font-family="lt_regular"  y="17">Logout</text><text text-decoration="none" x="40.55" fill="#4b4b4b" font-size="10pt" font-family="noto_regular"  y="17"></text></g><g transform="translate(1099.9981689453118, 688.508014112711) rotate(0, 0, 0)" width="139.55" height="36.01"><text text-decoration="none" x="0" fill="#455569" font-size="10pt" font-family="lt_regular"  y="14">Initializes&#160;</text><text text-decoration="none" x="56" fill="#455569" font-size="10pt" font-family="lt_regular"  y="14">logout&#160;</text><text text-decoration="none" x="95" fill="#455569" font-size="10pt" font-family="lt_regular"  y="14">system</text><text text-decoration="none" x="137" fill="#455569" font-size="10pt" font-family="lt_regular"  y="14"></text><text text-decoration="none" x="69.775" fill="#4b4b4b" font-size="10pt" font-family="noto_regular"  y="36"></text></g><g transform="translate(1259.9881689453118, 688.508014112711) rotate(0, 0.01, 0)" width="0.01" height="18.1"><text text-decoration="none" x="0.005" fill="#4b4b4b" font-size="10pt" font-family="noto_regular"  y="17"></text></g></g><g id="0uxzkatGQgW"><g><path d="M 1094.9981689453123,457.3261961042881 L 994.9981689453123,456.96214230406514 L 994.9981689453123,526.3261961042881 L 994.9981689453123,595.3261961042881 L 894.9981689453123,595.3261961042881" fill="none" stroke="#7E7E7E" stroke-width="2" stroke-linecap="round" stroke-linejoin="round"/></g></g><g id="l0GigHugmRf"><g><path d="M 894.9981689453123,595.3261961042881 L 994.9981689453123,595.3261961042881 L 994.9981689453123,586.3261961042881 L 994.9981689453123,576.9621423040652 L 1094.9981689453123,577.3261961042881" fill="none" stroke="#A8A8A8" stroke-width="2" stroke-linecap="round" stroke-linejoin="round"/></g></g><g id="9Z433x69Kj4"><g><path d="M 894.9981689453123,595.3261961042881 L 994.9981689453118,595.3261961042881 L 994.9981689453123,638.3261961042881 L 994.9981689453118,681.8818255784591 L 1094.9981689453123,682.3261961042881" fill="none" stroke="#A8A8A8" stroke-width="2" stroke-linecap="round" stroke-linejoin="round" stroke-dasharray="3 3"/></g></g><g id="NQ5AsbdHb2J"><g transform="translate(1084.9981689453118 1135.326196104288)"><rect x="0" y="0" width="169.99999999999778" height="103.27189239955412" rx="10" ry="10" fill="rgb(255,255,255)" stroke="#24afaf" stroke-width="2" stroke-linecap="round" stroke-linejoin="round"/><path d="M 0 30 a 0,0 0 0 1 0,0 h 169.99999999999778 a 0,0 0 0 1 0,0 v 63.27189239955412 a 10,10 0 0 1 -10,10 h -149.99999999999778 a 10,10 0 0 1 -10,-10 z" fill="rgb(255,255,255)" stroke="#24afaf" stroke-width="2" stroke-linecap="round" stroke-linejoin="round" /></g><g transform="translate(1133.5031689453108, 1141.326196104288) rotate(0, 36.495, 9)" width="72.99" height="18"><text text-decoration="none" x="0.9949999999999974" fill="#4b4b4b" font-size="10pt" font-family="lt_regular"  y="17">manageFees</text><text text-decoration="none" x="71.995" fill="#4b4b4b" font-size="10pt" font-family="noto_regular"  y="17"></text></g><g transform="translate(1094.9981689453118, 1170.326196104288) rotate(0, 0, 0)" width="92.96" height="18"><text text-decoration="none" x="0" fill="#4b4b4b" font-size="10pt" font-family="lt_regular"  y="17">assignFee()&#160;</text><text text-decoration="none" x="65" fill="#4b4b4b" font-size="10pt" font-family="lt_regular"  y="17">void</text><text text-decoration="none" x="89" fill="#4b4b4b" font-size="10pt" font-family="noto_regular"  y="17"></text></g></g><g id="cHcfIHR4O6Q"><g transform="translate(1084.9981689453118 1015.326196104288)"><rect x="0" y="0" width="169.99999999999784" height="103.27189239955412" rx="10" ry="10" fill="rgb(255,255,255)" stroke="#24afaf" stroke-width="2" stroke-linecap="round" stroke-linejoin="round"/><path d="M 0 30 a 0,0 0 0 1 0,0 h 169.99999999999784 a 0,0 0 0 1 0,0 v 63.27189239955412 a 10,10 0 0 1 -10,10 h -149.99999999999784 a 10,10 0 0 1 -10,-10 z" fill="rgb(255,255,255)" stroke="#24afaf" stroke-width="2" stroke-linecap="round" stroke-linejoin="round" /></g><g transform="translate(1130.5831689453107, 1021.3261961042881) rotate(0, 39.415, 9)" width="78.83" height="18"><text text-decoration="none" x="0.41499999999999915" fill="#4b4b4b" font-size="10pt" font-family="lt_regular"  y="17">manageUsers</text><text text-decoration="none" x="78.41499999999999" fill="#4b4b4b" font-size="10pt" font-family="noto_regular"  y="17"></text></g><g transform="translate(1094.9981689453118, 1050.326196104288) rotate(0, 0, 0)" width="107.4" height="54.01"><text text-decoration="none" x="0" fill="#4b4b4b" font-size="10pt" font-family="lt_regular"  y="14">viewUsers()&#160;</text><text text-decoration="none" x="70" fill="#4b4b4b" font-size="10pt" font-family="lt_regular"  y="14">String</text><text text-decoration="none" x="104" fill="#4b4b4b" font-size="10pt" font-family="lt_regular"  y="14"></text><text text-decoration="none" x="0" fill="#4b4b4b" font-size="10pt" font-family="lt_regular"  y="33">removeUser()&#160;</text><text text-decoration="none" x="81" fill="#4b4b4b" font-size="10pt" font-family="lt_regular"  y="33">void</text><text text-decoration="none" x="105" fill="#4b4b4b" font-size="10pt" font-family="lt_regular"  y="33"></text><text text-decoration="none" x="53.7" fill="#4b4b4b" font-size="10pt" font-family="noto_regular"  y="55"></text></g></g><g id="8labnNp0Z1W"><g transform="translate(1084.998168945312 895.3261961042883)"><rect x="0" y="0" width="169.9999999999987" height="103.27189239955412" rx="10" ry="10" fill="rgb(255,255,255)" stroke="#24afaf" stroke-width="2" stroke-linecap="round" stroke-linejoin="round"/><path d="M 0 30 a 0,0 0 0 1 0,0 h 169.9999999999987 a 0,0 0 0 1 0,0 v 63.27189239955412 a 10,10 0 0 1 -10,10 h -149.9999999999987 a 10,10 0 0 1 -10,-10 z" fill="rgb(255,255,255)" stroke="#24afaf" stroke-width="2" stroke-linecap="round" stroke-linejoin="round" /></g><g transform="translate(1129.0581689453113, 901.3261961042883) rotate(0, 40.94, 9)" width="81.88" height="18"><text text-decoration="none" x="1.4399999999999977" fill="#4b4b4b" font-size="10pt" font-family="lt_regular"  y="17">manageBooks</text><text text-decoration="none" x="80.44" fill="#4b4b4b" font-size="10pt" font-family="noto_regular"  y="17"></text></g><g transform="translate(1094.998168945312, 930.3261961042883) rotate(0, 0, 0)" width="110.44" height="36.01"><text text-decoration="none" x="0" fill="#4b4b4b" font-size="10pt" font-family="lt_regular"  y="14">addBook()&#160;</text><text text-decoration="none" x="58" fill="#4b4b4b" font-size="10pt" font-family="lt_regular"  y="14">void</text><text text-decoration="none" x="82" fill="#4b4b4b" font-size="10pt" font-family="lt_regular"  y="14"></text><text text-decoration="none" x="0" fill="#4b4b4b" font-size="10pt" font-family="lt_regular"  y="36">removeBook()&#160;</text><text text-decoration="none" x="82" fill="#4b4b4b" font-size="10pt" font-family="lt_regular"  y="36">void</text><text text-decoration="none" x="106" fill="#4b4b4b" font-size="10pt" font-family="noto_regular"  y="36"></text></g></g><g id="Z1HvyPZEmTa"><g transform="translate(1084.9981689453118 775.3261961042881)"><rect x="0" y="0" width="169.99999999999048" height="103.27189239955412" rx="10" ry="10" fill="rgb(255,255,255)" stroke="#24afaf" stroke-width="2" stroke-linecap="round" stroke-linejoin="round"/><path d="M 0 30 a 0,0 0 0 1 0,0 h 169.99999999999048 a 0,0 0 0 1 0,0 v 63.27189239955412 a 10,10 0 0 1 -10,10 h -149.99999999999048 a 10,10 0 0 1 -10,-10 z" fill="rgb(255,255,255)" stroke="#24afaf" stroke-width="2" stroke-linecap="round" stroke-linejoin="round" /></g><g transform="translate(1126.268168945307, 781.3261961042881) rotate(0, 43.73, 9)" width="87.46" height="18"><text text-decoration="none" x="0.7299999999999969" fill="#4b4b4b" font-size="10pt" font-family="lt_regular"  y="17">manageGenres</text><text text-decoration="none" x="86.72999999999999" fill="#4b4b4b" font-size="10pt" font-family="noto_regular"  y="17"></text></g><g transform="translate(1094.9981689453118, 810.3261961042881) rotate(0, 0, 0)" width="116.04" height="36.01"><text text-decoration="none" x="0" fill="#4b4b4b" font-size="10pt" font-family="lt_regular"  y="14">addGenre()&#160;</text><text text-decoration="none" x="65" fill="#4b4b4b" font-size="10pt" font-family="lt_regular"  y="14">void</text><text text-decoration="none" x="89" fill="#4b4b4b" font-size="10pt" font-family="lt_regular"  y="14"></text><text text-decoration="none" x="0" fill="#4b4b4b" font-size="10pt" font-family="lt_regular"  y="36">removeGenre()&#160;</text><text text-decoration="none" x="89" fill="#4b4b4b" font-size="10pt" font-family="lt_regular"  y="36">void</text><text text-decoration="none" x="113" fill="#4b4b4b" font-size="10pt" font-family="noto_regular"  y="36"></text></g></g><g id="Q4NAgDY7h0a"><g><path d="M 904.9981689453123,870.3261961042881 L 994.9981689453261,869.8716501295567 L 994.9981689453123,848.3261961042881 L 994.9981689453261,826.9621423040651 L 1084.9981689453123,827.3261961042881" fill="none" stroke="#7E7E7E" stroke-width="2" stroke-linecap="round" stroke-linejoin="round"/></g></g><g id="PJBXsnPA0GO"><g><path d="M 904.9981689453123,870.3261961042881 L 994.9981689453264,869.8716501295567 L 994.9981689453123,908.3261961042881 L 994.9981689453264,946.9621423040653 L 1084.9981689453123,947.3261961042881" fill="none" stroke="#7E7E7E" stroke-width="2" stroke-linecap="round" stroke-linejoin="round"/></g></g><g id="eClpoxTG46M"><g><path d="M 904.9981689453123,870.3261961042881 L 994.9981689453261,869.8716501295567 L 994.9981689453123,968.3261961042881 L 994.9981689453261,1066.962142304065 L 1084.9981689453123,1067.326196104288" fill="none" stroke="#7E7E7E" stroke-width="2" stroke-linecap="round" stroke-linejoin="round"/></g></g><g id="wnsFKPyUMZR"><g><path d="M 904.9981689453123,870.3261961042881 L 994.9981689453261,869.8716501295567 L 994.9981689453123,1028.326196104288 L 994.9981689453261,1186.962142304065 L 1084.9981689453123,1187.326196104288" fill="none" stroke="#7E7E7E" stroke-width="2" stroke-linecap="round" stroke-linejoin="round"/></g></g><g id="E9N8nuFvEUw"><g><path d="M 904.9981689453123,870.3261961042881 L 993.8309010076316,870.3261961042881 L 993.9981689453123,785.3261961042881 L 993.8309010076316,699.3261961042881 L 1094.9981689453123,699.3261961042881" fill="none" stroke="#A8A8A8" stroke-width="2" stroke-linecap="round" stroke-linejoin="round" stroke-dasharray="3 3"/></g></g><g id="9ChBhDKm6gA"><g transform="translate(309.9999999999998 159.99999999999994)"><path d="M 10,0 L 1080,0 L 1080,0 L 1080,0 A 10 10 0 0 1 1090 10 L 1090,89.99999999999983 L 1090,89.99999999999983 L 1090,89.99999999999983 A 10 10 0 0 1 1080 99.99999999999983 L 10,99.99999999999983 L 10,99.99999999999983 L 10,99.99999999999983 A 10 10 0 0 1 0 89.99999999999983 L 0,10 L 0,10 L 0,10.000000000000002 A 10 10 0 0 1 10 0 Z" fill="rgb(254,190,50)" stroke="#febe32" stroke-width="2" stroke-linecap="round" stroke-linejoin="round"/></g><g transform="translate(612.7699999999998, 177.49999999999986) rotate(0, 242.23, 32.5)" width="484.46" height="65"><text text-decoration="none" x="95.22999999999999" fill="#24afaf" font-weight="bold" font-size="36pt" font-family="noto_regular"  y="51">Deployment&#160;</text><text text-decoration="none" x="139.73" fill="#24afaf" font-weight="bold" font-size="36pt" font-family="noto_regular"  y="116">Diagram</text><text text-decoration="none" x="344.73" fill="#4b4b4b" font-size="10pt" font-family="noto_regular"  y="116"></text></g></g></svg>